# xmcd CD database file
#
# Track frame offsets:
#	150
#	12499
#	31197
#	47290
#	62757
#	82778
#	102495
#	113388
#	133514
#	146730
#	163692
#	184667
#	198144
#	213518
#
# Disc length: 3121 seconds
#
# Revision: 0
# Processed by: cddbd v1.5.2PL0 Copyright (c) Steve Scherf et al.
# Submitted via: CDex 1.70beta2
#
DISCID=b10c2f0e
DTITLE=Suzie Vinnick - Me 'N' Mabel
DYEAR=2011
DGENRE=Blues
TTITLE0=Walking By Myself
TTITLE1=I Can Tell
TTITLE2=Qhit Your Lowdown Ways
TTITLE3=Save Me For Later
TTITLE4=Send Me Someone to Love
TTITLE5=Queen Bee
TTITLE6=Get Some
TTITLE7=You'll Be Mine
TTITLE8=The Honey I Want
TTITLE9=Crazy 'Bout Lovin' Me
TTITLE10=Sometimes I Think I Can Fly
TTITLE11=Oreo Cookie Blues
TTITLE12=On My
TTITLE13=Never Been To Spain
EXTD=YEAR: 2011
EXTT0=
EXTT1=
EXTT2=
EXTT3=
EXTT4=
EXTT5=
EXTT6=
EXTT7=
EXTT8=
EXTT9=
EXTT10=
EXTT11=
EXTT12=
EXTT13=
PLAYORDER=
